<?xml version="1.0" standalone="no"?><!DOCTYPE svg PUBLIC "-//W3C//DTD SVG 1.1//EN" "http://www.w3.org/Graphics/SVG/1.1/DTD/svg11.dtd"><svg t="1528439797789" class="icon" style="" viewBox="0 0 1024 1024" version="1.1" xmlns="http://www.w3.org/2000/svg" p-id="22610" xmlns:xlink="http://www.w3.org/1999/xlink" width="200" height="200"><defs><style type="text/css"></style></defs><path d="M525.6 760.4l-13.6 22-13.6-22c-8-12.9-16.3-25.3-25-37.5-14.3-20-29.1-38.6-48-60.7-2.8-3.3-36.5-42-45.8-53.2-65.1-78.2-91.6-143.2-91.6-257 0-100 35.9-176 96.5-228.4C427 86.8 481.9 64 512 64s85 22.8 127.5 59.6C700.1 176 736 252 736 352c0 113.8-26.5 178.8-91.6 257-9.3 11.2-43 49.9-45.8 53.2-18.9 22.1-33.7 40.7-48 60.7-8.7 12.2-17 24.6-25 37.5z m-1-56.2c14.9-20.8 30.3-40.1 49.7-62.8 3-3.5 36.5-42 45.5-52.9C680.4 515.8 704 457.8 704 352c0-90.5-31.8-157.8-85.4-204.2-37-32-84.7-51.8-106.6-51.8s-69.6 19.8-106.6 51.8C351.8 194.2 320 261.5 320 352c0 105.8 23.6 163.8 84.2 236.5 9 10.8 42.5 49.4 45.5 52.9 19.4 22.7 34.8 42 49.7 62.8 4.3 6 8.5 12.1 12.6 18.2 4.1-6.1 8.3-12.2 12.6-18.2z" fill="#333333" p-id="22611"></path><path d="M524.6 704.2c14.9-20.8 30.3-40.1 49.7-62.8 3-3.5 36.5-42 45.5-52.9C680.4 515.8 704 457.8 704 352c0-90.5-31.8-157.8-85.4-204.2-37-32-84.7-51.8-106.6-51.8s-69.6 19.8-106.6 51.8C351.8 194.2 320 261.5 320 352c0 105.8 23.6 163.8 84.2 236.5 9 10.8 42.5 49.4 45.5 52.9 19.4 22.7 34.8 42 49.7 62.8 4.3 6 8.5 12.1 12.6 18.2 4.1-6.1 8.3-12.2 12.6-18.2z" fill="#B2D56D" p-id="22612"></path><path d="M401.879333 253.679016a16 32 30 1 0 32-55.425626 16 32 30 1 0-32 55.425626Z" fill="#FFFFFF" p-id="22613"></path><path d="M513.5 720.2c-0.5 0.7-1 1.5-1.5 2.2-4.1-6.1-8.3-12.2-12.6-18.2-6.2-8.7-12.5-17.1-19.2-25.7 12.3 14.7 23.1 28.1 33.3 41.7zM407.8 592.9c-1.4-1.7-2.7-3.2-3.6-4.3C343.6 515.8 320 457.8 320 352c0-90.5 31.8-157.8 85.4-204.2 37-32 84.7-51.8 106.6-51.8 3.6 0 7.9 0.5 12.8 1.6-25.8 5.4-66.4 24.6-99 52.8-56.4 48.8-89.8 119.5-89.8 214.7 0 100.9 20.4 160.4 71.8 227.8z" fill="#D0E5A7" p-id="22614"></path><path d="M484.6 684.3c14.8-20.2 30.4-39.5 49.5-61.8 3.4-3.9 41-47.3 51.2-59.5 68.2-81.8 94.7-147.1 94.7-266.1 0-31-3.3-59.6-9.6-85.9C692 249.6 704 296.4 704 352c0 105.8-23.6 163.8-84.2 236.5-9 10.8-42.5 49.4-45.5 52.9-19.4 22.7-34.8 42-49.7 62.8-4.3 6-8.5 12.1-12.6 18.2-4.1-6.1-8.3-12.2-12.6-18.2-4.9-6.7-9.7-13.3-14.8-19.9z" fill="#9CC34E" p-id="22615"></path><path d="M512 960c-96.7 0-117-88.7-79.6-243.8 21.4-88.6 42.8-168.9 64.2-240.8l15.3-51.5 15.3 51.5c21.4 71.9 42.8 152.2 64.2 240.8C629 871.3 608.7 960 512 960z m-48.4-236.2C430.4 861.2 445.6 928 512 928s81.6-66.8 48.4-204.2c-16.2-66.9-32.3-129-48.4-186.3-16.1 57.3-32.3 119.3-48.4 186.3z" fill="#333333" p-id="22616"></path><path d="M463.6 723.8C430.4 861.2 445.6 928 512 928s81.6-66.8 48.4-204.2c-16.2-66.9-32.3-129-48.4-186.3-16.1 57.3-32.3 119.3-48.4 186.3z" fill="#FFFFFF" p-id="22617"></path><path d="M500.3 579.9c3.9-14.4 7.8-28.6 11.7-42.4 16.1 57.3 32.3 119.3 48.4 186.3C593.6 861.2 578.4 928 512 928c-28 0-46.9-11.9-56.9-36 7.3 2.6 15.6 4 24.9 4 66.4 0 81.6-66.8 48.4-204.2-9.3-39-18.7-76.2-28.1-111.9z" fill="#E6EADF" p-id="22618"></path><path d="M528 480c0 8.8-7.2 16-16 16s-16-7.2-16-16V208c0-8.8 7.2-16 16-16s16 7.2 16 16v272z" fill="#333333" p-id="22619"></path><path d="M520.7 410.5c7.4 4.8 9.6 14.7 4.8 22.1-4.8 7.4-14.7 9.6-22.1 4.8l-112-72c-7.4-4.8-9.6-14.7-4.8-22.1 4.8-7.4 14.7-9.6 22.1-4.8l112 72zM521.6 348.8c-7.1 5.3-17.1 3.9-22.4-3.2-5.3-7.1-3.9-17.1 3.2-22.4l64-48c7.1-5.3 17.1-3.9 22.4 3.2s3.9 17.1-3.2 22.4l-64 48z" fill="#333333" p-id="22620"></path></svg>