<?xml version="1.0" standalone="no"?><!DOCTYPE svg PUBLIC "-//W3C//DTD SVG 1.1//EN" "http://www.w3.org/Graphics/SVG/1.1/DTD/svg11.dtd"><svg t="1528439439264" class="icon" style="" viewBox="0 0 1024 1024" version="1.1" xmlns="http://www.w3.org/2000/svg" p-id="12307" xmlns:xlink="http://www.w3.org/1999/xlink" width="200" height="200"><defs><style type="text/css"></style></defs><path d="M540.1 831.8l0.3 28.9c2.8 0 19-0.7 62.4-15.2l-9.1-27.4c-39.2 13-53.4 13.7-53.6 13.7z m-194.6-26.9l-14.8 24.8c2.7 1.6 57.7 33.9 139.2 33.9 13.9 0 28.5-0.9 43.8-3.1l-4.1-28.6c-94.6 13.5-163.4-26.6-164.1-27zM742.8 427v28.9c63.8 0 115.6-51.9 115.6-115.6h-28.9c0 47.8-38.9 86.7-86.7 86.7zM439.2 528.2c0-23.9 19.5-43.4 43.4-43.4s43.4 19.5 43.4 43.4-19.5 43.4-43.4 43.4-43.4-19.5-43.4-43.4z m115.7 0c0-39.8-32.4-72.3-72.3-72.3s-72.3 32.4-72.3 72.3c0 39.8 32.4 72.3 72.3 72.3s72.3-32.4 72.3-72.3z m-6.5-127.6c-18.9-12.6-70.7-37.8-144.6-0.9-29.9 15-92.5 25.2-167.4 27.4l0.8 28.9c37.9-1.1 131.2-6.3 179.5-30.4 60.3-30.2 100.9-10.7 115.6-0.9 34.1 22.7 51.4 57.6 51.4 103.6 0 38.9-10.2 132.4-105.2 159.5-53.2 15.2-144.3-11.3-206.4-42.4C213.1 615.9 150 562 150 499.3c0-18.6 6-43.4 57.8-43.4V427c-75.5 0-86.7 45.3-86.7 72.3 0 75.8 71.3 138.5 138.1 171.9C313.7 698.4 385.3 721 443 721c15.8 0 30.5-1.7 43.6-5.4 117.1-33.4 126.1-151.9 126.1-187.4 0-55.5-22.2-99.6-64.3-127.6z m194.4 84.3c-79.7 0-144.5-64.8-144.5-144.5s64.8-144.5 144.5-144.5 144.5 64.8 144.5 144.5-64.8 144.5-144.5 144.5z m0-318c-95.6 0-173.5 77.8-173.5 173.5s77.8 173.5 173.5 173.5c95.6 0 173.5-77.8 173.5-173.5s-77.9-173.5-173.5-173.5z m174.1 270.3C860 621.3 673.9 745 453.7 745c-154.7 0-267.4-71.9-321.2-139.1-25.9-32.4-40.2-70.3-40.2-106.6 0-30 18.1-86.7 86.7-86.7 179.9 0 256.3-33.5 371.4-162.8 61.6-69.2 117.4-97.4 192.3-97.4 129.8 0 187.9 101.6 187.9 202.4 0.1 25.8-9.4 67.6-13.7 82.4zM639 655.7c-2.3-22.2-1.3-66 38-85.6 12.1-6 24.3-8.3 35.9-8.3 22 0 41.6 8.3 53.3 14.5-18.5 24.9-63.1 64.4-127.2 79.4z m291.7-127.5c0 102.1-133.1 346.9-462.5 346.9C281.6 875.1 118 732.5 92.4 656v-57.6c5.2 8.8 11 17.4 17.6 25.6 58 72.5 178.8 150 343.7 150 217.5 0 403.8-115.1 477-290.4v44.6z m28.9-173.4c0-115.1-67-231.3-216.8-231.3-83 0-147 32-213.9 107.1-109.6 123-178.3 153.1-349.8 153.1-84.8 0-115.6 69.1-115.6 115.6 0 4.8 0.3 9.6 0.7 14.5h-0.7v144.5l0.6 4.2C90.3 747.7 263.6 904 468.2 904c350 0 491.4-265.2 491.4-375.8v-159h-0.7c0.4-5 0.7-9.9 0.7-14.4zM664.1 544.2c-59.4 29.7-59.3 99.4-50.9 132.1l3.3 12.9 13.1-2.2c86.6-14.4 151.3-72.4 169.5-109l5.4-10.8-9.7-7.2c-2.6-2-65.7-48.3-130.7-15.8z" fill="#d81e06" p-id="12308"></path></svg>