<?xml version="1.0" standalone="no"?><!DOCTYPE svg PUBLIC "-//W3C//DTD SVG 1.1//EN" "http://www.w3.org/Graphics/SVG/1.1/DTD/svg11.dtd"><svg t="1528439756047" class="icon" style="" viewBox="0 0 1024 1024" version="1.1" xmlns="http://www.w3.org/2000/svg" p-id="21970" xmlns:xlink="http://www.w3.org/1999/xlink" width="200" height="200"><defs><style type="text/css"></style></defs><path d="M404.924 733.624c-27.99-27.99-65.208-43.408-104.792-43.408H0.036v-31.346h300.096c47.958 0 93.046 18.676 126.958 52.588l-22.166 22.166zM240.326 955.708h526.628v31.996H240.326z" fill="#FF931E" p-id="21971"></path><path d="M983.968 722.54c-26.506 0-47.996 21.49-47.996 47.996 0 97.196-78.792 175.988-175.988 175.988H264.016c-97.196 0-175.988-78.792-175.988-175.988 0-26.506-21.49-47.996-47.996-47.996" fill="#BDCCD4" p-id="21972"></path><path d="M799.98 722.848c-26.506 0-47.996 21.302-47.996 47.808 0 97.196-78.792 175.8-175.988 175.8h183.988c97.196 0 175.988-78.604 175.988-175.8 0-26.506 21.49-47.808 47.996-47.808H799.98z" fill="#CAD6DD" p-id="21973"></path><path d="M216.02 722.848c26.506 0 47.996 21.302 47.996 47.808 0 97.196 78.792 175.8 175.988 175.8h-183.988c-97.196 0-175.988-78.604-175.988-175.8 0-26.506-21.49-47.808-47.996-47.808h183.988z" fill="#8E999F" p-id="21974"></path><path d="M240.326 979.888h526.628v31.346H240.326z" fill="" p-id="21975"></path><path d="M432.588 770.908h158.824v31.346h-158.824z" fill="#FF931E" p-id="21976"></path><path d="M0 706.13v31.346h40.032c17.824 0 32.322 15.236 32.322 33.06 0 105.684 85.978 191.662 191.662 191.662h495.968c105.68 0 191.662-85.978 191.662-191.662 0-17.824 14.5-33.06 32.322-33.06H1024v-31.346H0z m920.298 64.408c0 0.128-0.008 0.25-0.01 0.376H608.13v31.346h309.002c-14.764 73.254-79.61 128.592-157.148 128.592H264.016c-77.54 0-142.384-55.338-157.148-128.592h309.002v-31.346H103.712c0-0.128-0.01-0.25-0.01-0.376a63.304 63.304 0 0 0-9.274-33.06h835.148a63.27 63.27 0 0 0-9.278 33.06zM318.566 600.37l-29.104-11.642 16-39.996c8.814-22.04 8.814-46.314 0-68.354-11.82-29.546-11.82-62.088 0-91.636 8.814-22.04 8.814-46.314 0-68.354-11.82-29.548-11.82-62.092 0-91.638 8.814-22.038 8.814-46.314 0-68.354l-16-39.996 29.104-11.642 16 39.996c11.818 29.548 11.818 62.09 0 91.638-8.814 22.038-8.814 46.314 0 68.354 11.82 29.546 11.82 62.088 0 91.636-8.814 22.04-8.814 46.314 0 68.354 11.818 29.548 11.818 62.09 0 91.638l-16 39.996zM462.556 664.366l-29.104-11.642 16-39.996c8.814-22.038 8.814-46.314 0-68.354-11.818-29.548-11.818-62.09 0-91.638l16-39.998 29.104 11.642-16 39.996c-8.814 22.04-8.814 46.314 0 68.354 11.82 29.546 11.82 62.088 0 91.636l-16 40zM433.452 248.394l-16-39.996c-11.82-29.546-11.82-62.09 0-91.638l16-39.998 29.104 11.642-16 39.996c-8.814 22.038-8.814 46.314 0 68.354l16 39.996-29.104 11.644zM574.55 504.378l-29.106-11.642 16-39.998c8.816-22.036 8.814-46.314 0-68.354-11.818-29.546-11.818-62.09 0-91.636 8.814-22.04 8.816-46.314 0-68.354-11.818-29.546-11.818-62.09 0-91.638 8.816-22.036 8.814-46.314 0-68.354l-16-39.996 29.106-11.642 16 39.996c11.816 29.548 11.816 62.092 0 91.638-8.816 22.038-8.816 46.314 0 68.354 11.816 29.548 11.816 62.09 0 91.638-8.816 22.038-8.816 46.314 0 68.354 11.816 29.548 11.816 62.092 0 91.638l-16 39.996zM718.54 600.368l-29.106-11.64 15.998-39.996c8.816-22.04 8.816-46.314 0-68.354-11.816-29.548-11.816-62.09 0-91.638 8.816-22.04 8.816-46.314 0-68.354-11.816-29.548-11.816-62.09 0-91.638l16-39.998 29.106 11.642-16 39.998c-8.816 22.036-8.814 46.314 0 68.354 11.818 29.546 11.818 62.09 0 91.636-8.814 22.04-8.816 46.314 0 68.354 11.818 29.546 11.818 62.09 0 91.638l-15.998 39.996z" fill="" p-id="21977"></path></svg>